<svg width="85" height="82" viewBox="0 0 85 82" fill="none" xmlns="http://www.w3.org/2000/svg">
<g clip-path="url(#clip0_5_190)">
<path d="M0 82V74.2033H5.65321V75.6148H1.4806V77.7656H5.38401V79.1098H1.4806V82H0Z" fill="#2A3568"/>
<path d="M14.7387 82H12.9889L10.7007 79.3787H9.28743V82H7.80682V74.1361C9.01823 74.1361 10.2969 74.1361 11.5083 74.1361C13.3254 74.1361 14.3349 75.3459 14.3349 76.7574C14.3349 77.8328 13.8638 78.9082 12.3832 79.2443L14.7387 81.9328V82ZM9.28743 75.5476V78.0344H11.5083C12.4505 78.0344 12.8543 77.4295 12.8543 76.7574C12.8543 76.1525 12.4505 75.4803 11.5083 75.4803H9.28743V75.5476Z" fill="#2A3568"/>
<path d="M22.0744 80.5213H17.9691L17.2961 82H15.6809L19.1805 74.1361H20.7957L24.2953 82H22.6801L22.0744 80.5213ZM19.9881 75.8164L18.5075 79.1771H21.4014L19.9881 75.8164Z" fill="#2A3568"/>
<path d="M32.8424 76.3541L30.285 79.782H30.0158L27.5257 76.3541V82.0672H26.0451V74.2033H27.7276L30.1504 77.5639L32.5732 74.2033H34.323V82H32.8424V76.3541Z" fill="#2A3568"/>
<path d="M42.6683 82H36.8132C36.8132 79.3787 36.8132 76.7574 36.8132 74.1361H42.6683V75.5476H38.2938V77.3623H42.5337V78.7066H38.2938V80.4541H42.6683V82Z" fill="#2A3568"/>
<path d="M50.3405 82V78.841H46.4371V82H44.9565V74.1361H46.4371V77.4295H50.2732V74.1361H51.7538V82H50.3405Z" fill="#2A3568"/>
<path d="M59.897 80.5213H55.7917L55.1187 82H53.5035L57.0031 74.1361H58.6183L62.118 82H60.5027L59.897 80.5213ZM57.8107 75.8164L56.3301 79.1771H59.224L57.8107 75.8164Z" fill="#2A3568"/>
<path d="M64.6754 75.5475H62.1853V74.2033C64.4735 74.2033 66.3579 74.2033 68.6461 74.2033V75.5475H66.156V82.0672H64.6754V75.5475Z" fill="#2A3568"/>
<path d="M76.9913 74.2033L73.4917 77.9672L77.2605 81.9328V82H75.4434L72.1457 78.5049V82H70.6651V74.1361H72.1457V77.4295L75.1069 74.1361L76.9913 74.2033Z" fill="#2A3568"/>
<path d="M85 82H79.1449C79.1449 79.3787 79.1449 76.7574 79.1449 74.1361H85V75.5476H80.6255V77.3623H84.8654V78.7066H80.6255V80.4541H85V82Z" fill="#2A3568"/>
<path d="M65.1465 54.8459L60.6374 62.7098L56.061 54.8459H65.1465Z" fill="#F3733D"/>
<path d="M83.2502 70.5066H74.232L78.7411 62.7098L83.2502 70.5066Z" fill="#2A3568"/>
<path d="M74.232 54.8459L69.6556 62.7098L65.1465 70.5066H56.061L60.6374 62.7098L65.1465 54.8459L69.6556 46.982L74.232 54.8459Z" fill="#F3733D"/>
<path d="M65.1465 39.1853L60.6374 46.982L56.061 54.8459L51.5519 62.7098L47.0428 70.5066H37.9573L42.4664 62.7098L47.0428 54.8459L51.5519 46.982L56.061 39.1853L60.6374 31.3213L65.1465 39.1853Z" fill="#F3733D"/>
<path d="M60.6374 31.3213H51.5519L47.0428 23.5246L42.4664 15.6607L37.9573 23.5246L33.4482 31.3213L37.9573 39.1852L42.4664 46.982H33.4482L28.9391 39.1852L24.3626 46.982L19.8535 54.8459L15.3444 62.7098L10.768 70.5066H1.74982L6.25892 62.7098L10.768 54.8459L15.3444 46.982L19.8535 39.1852L24.3626 31.3213L28.9391 23.5246L33.4482 15.6607L37.9573 7.86393L42.4664 0L47.0428 7.86393L51.5519 15.6607L56.061 23.5246L60.6374 31.3213Z" fill="#2A3568"/>
</g>
<defs>
<clipPath id="clip0_5_190">
<rect width="85" height="82" fill="white"/>
</clipPath>
</defs>
</svg>
