<svg width="469" height="546" viewBox="0 0 469 546" fill="none" xmlns="http://www.w3.org/2000/svg">
<g clip-path="url(#clip0_267_1113)">
<path d="M452.984 201.241H14.7289C10.8239 201.237 7.08018 199.683 4.31896 196.922C1.55774 194.161 0.00450897 190.417 0 186.512V14.7288C0.00450897 10.8239 1.55774 7.08015 4.31896 4.31893C7.08018 1.55771 10.8239 0.00447845 14.7289 -3.05176e-05H452.984C456.889 0.00447845 460.633 1.55771 463.394 4.31893C466.156 7.08015 467.709 10.8239 467.713 14.7288V186.512C467.709 190.417 466.156 194.161 463.394 196.922C460.633 199.683 456.889 201.237 452.984 201.241Z" fill="#F2F2F2"/>
<path d="M350.774 191.847H84.2953C64.4377 191.825 45.3998 183.927 31.3584 169.885C17.317 155.844 9.41864 136.806 9.39624 116.948V84.301C9.41862 64.4434 17.3169 45.4055 31.3584 31.3639C45.3998 17.3224 64.4376 9.42397 84.2953 9.40144H383.421C403.278 9.42397 422.316 17.3224 436.358 31.3639C450.399 45.4055 458.297 64.4434 458.32 84.301C458.288 112.814 446.946 140.15 426.785 160.312C406.623 180.474 379.287 191.815 350.774 191.847Z" fill="white"/>
<path d="M282.033 58.5773H105.887C104.88 58.5773 103.914 58.1771 103.201 57.4648C102.489 56.7524 102.089 55.7862 102.089 54.7788C102.089 53.7713 102.489 52.8051 103.201 52.0928C103.914 51.3804 104.88 50.9802 105.887 50.9802H282.033C283.04 50.9802 284.006 51.3804 284.719 52.0928C285.431 52.8051 285.831 53.7713 285.831 54.7788C285.831 55.7862 285.431 56.7524 284.719 57.4648C284.006 58.1771 283.04 58.5773 282.033 58.5773Z" fill="#E6E6E6"/>
<path d="M371.201 99.1057H105.887C104.88 99.1057 103.914 98.7055 103.201 97.9931C102.489 97.2807 102.089 96.3146 102.089 95.3071C102.089 94.2997 102.489 93.3335 103.201 92.6211C103.914 91.9087 104.88 91.5085 105.887 91.5085H371.201C372.208 91.5085 373.174 91.9087 373.887 92.6211C374.599 93.3335 374.999 94.2997 374.999 95.3071C374.999 96.3146 374.599 97.2807 373.887 97.9931C373.174 98.7055 372.208 99.1057 371.201 99.1057Z" fill="#E6E6E6"/>
<path d="M371.201 139.634H105.887C104.88 139.634 103.914 139.234 103.201 138.521C102.489 137.809 102.089 136.843 102.089 135.835C102.089 134.828 102.489 133.862 103.201 133.149C103.914 132.437 104.88 132.037 105.887 132.037H371.201C372.208 132.037 373.174 132.437 373.887 133.149C374.599 133.862 374.999 134.828 374.999 135.835C374.999 136.843 374.599 137.809 373.887 138.521C373.174 139.234 372.208 139.634 371.201 139.634Z" fill="#E6E6E6"/>
<path d="M371.201 139.634H105.887C104.88 139.634 103.914 139.234 103.201 138.521C102.489 137.809 102.089 136.843 102.089 135.835C102.089 134.828 102.489 133.862 103.201 133.149C103.914 132.437 104.88 132.037 105.887 132.037H371.201C372.208 132.037 373.174 132.437 373.887 133.149C374.599 133.862 374.999 134.828 374.999 135.835C374.999 136.843 374.599 137.809 373.887 138.521C373.174 139.234 372.208 139.634 371.201 139.634Z" fill="#E6E6E6"/>
<path d="M263.445 103.757C263.487 104.901 263.78 106.023 264.302 107.041C264.825 108.06 265.564 108.952 266.468 109.655C267.373 110.357 268.42 110.852 269.537 111.106C270.653 111.359 271.812 111.365 272.931 111.123L287.417 134.888L293.582 121.805L278.881 101.243C278.349 99.3899 277.155 97.7966 275.527 96.7647C273.899 95.7329 271.949 95.3341 270.046 95.6441C268.143 95.954 266.421 96.9511 265.204 98.4465C263.987 99.9418 263.362 101.831 263.445 103.757H263.445Z" fill="#FFB799"/>
<path d="M372.155 171.866L322.233 144.787L306.486 130.013C306.486 130.013 299.641 128.181 302.16 125.955C304.68 123.729 297.5 121.582 297.5 121.582L289.046 113.651L277.035 122.151L280.511 127.539C280.511 127.539 280.272 136.46 285.159 134.744C290.046 133.028 288.825 140.426 288.825 140.426L317.994 185.643L372.155 171.866Z" fill="#E6E6E6"/>
<path d="M224.789 146.353C251.72 146.353 273.552 124.522 273.552 97.591C273.552 70.6602 251.72 48.8285 224.789 48.8285C197.859 48.8285 176.027 70.6602 176.027 97.591C176.027 124.522 197.859 146.353 224.789 146.353Z" fill="#F3733D"/>
<path d="M372.31 527.042H362.171L357.346 487.934H372.31V527.042Z" fill="#FFB799"/>
<path d="M377.661 544.609H370.39L369.093 537.744L365.769 544.609H346.484C345.56 544.609 344.659 544.313 343.915 543.765C343.17 543.218 342.62 542.446 342.345 541.564C342.07 540.681 342.084 539.734 342.386 538.86C342.687 537.986 343.26 537.232 344.021 536.706L359.421 526.07V519.13L375.619 520.097L377.661 544.609Z" fill="#4C4C4A"/>
<path d="M291.219 527.042H281.079L276.254 487.934H291.219V527.042Z" fill="#FFB799"/>
<path d="M296.57 544.609H289.299L288.001 537.744L284.677 544.609H265.392C264.468 544.609 263.568 544.313 262.823 543.765C262.079 543.218 261.529 542.446 261.254 541.564C260.978 540.681 260.993 539.734 261.294 538.86C261.596 537.986 262.168 537.232 262.929 536.706L278.329 526.07V519.13L294.527 520.097L296.57 544.609Z" fill="#4C4C4A"/>
<path d="M361.552 231.275H310.377V289.535H361.552V231.275Z" fill="#FFB799"/>
<path d="M311.559 260.011L302.898 270.246L287.94 301.738L250.248 391.419L242.276 410.385L248.714 443.913C248.714 443.913 249.756 467.534 249.756 471.401C249.756 479.274 256.341 483.636 256.341 483.636L261.171 508.797L308.016 506.829C308.016 506.829 306.381 479.094 296.57 472.098C286.759 465.102 282.249 428.642 282.249 428.642L276.917 412.465L328.879 350.87L329.214 372.401L329.377 382.822C329.377 382.822 321.767 450.603 330.638 463.758C339.508 476.912 330.818 475.364 330.818 475.364L331.241 502.499L386.745 502.893L374.5 424.771C374.5 424.771 368.283 419.861 371.609 414.927C374.936 409.992 368.385 403.947 368.385 403.947L371.323 342.96C371.323 342.96 368.07 332.426 371.897 331.056C375.723 329.687 372.399 320.628 372.399 320.628L372.968 308.824L361.552 272.214L311.559 260.011Z" fill="#4C4C4A"/>
<path d="M362.339 231.275L367.85 214.742L371.787 209.231L373.361 193.485C373.361 150.971 363.878 158.05 363.878 158.05L358.403 143.098L333.209 142.31L317.069 157.663L303.685 162.386L298.444 189.619L308.016 218.678L310.377 234.424C305.872 242.742 306.253 238.808 309.984 245.053L354.466 257.256C370.212 262.767 370.212 248.596 367.055 245.053C363.897 241.51 362.339 231.275 362.339 231.275Z" fill="#E6E6E6"/>
<path d="M342.551 137.025C355.45 137.025 365.907 126.569 365.907 113.67C365.907 100.771 355.45 90.3148 342.551 90.3148C329.653 90.3148 319.196 100.771 319.196 113.67C319.196 126.569 329.653 137.025 342.551 137.025Z" fill="#FFB799"/>
<path d="M373.731 144.845C373.951 145.217 374.085 145.633 374.122 146.063C374.158 146.493 374.098 146.926 373.944 147.329C373.791 147.732 373.548 148.096 373.234 148.392C372.921 148.689 372.544 148.911 372.133 149.042C369 150.081 367.071 153.112 364.819 155.537C362.575 157.954 358.962 159.962 356.096 158.316C353.238 156.679 353.041 152.498 350.648 150.231C348.317 148.026 344.444 148.294 341.704 149.971L341.622 150.021C341.149 150.329 340.596 150.492 340.032 150.49C339.467 150.487 338.916 150.319 338.446 150.007C337.976 149.694 337.607 149.25 337.387 148.731C337.166 148.211 337.102 147.638 337.204 147.083C338.164 141.978 339.123 136.873 340.082 131.768C337.562 137.839 333.904 143.371 329.304 148.065C328.037 149.528 326.432 150.657 324.628 151.356C322.99 151.876 321.4 150.183 319.809 150.49C323.762 147.034 337.051 124.879 334.673 110.07C331.879 110.385 329.084 110.7 326.289 111.015C325.986 109.692 325.34 108.473 324.415 107.48C324.528 108.768 324.364 110.064 323.935 111.283C322.77 111.417 321.596 111.543 320.431 111.677C318.809 111.858 317.046 112.015 315.652 111.165C313.33 109.748 313.259 106.394 313.92 103.748C315.857 96.0565 321.73 89.6243 328.918 86.2547C336.106 82.8929 338.232 90.3801 345.806 87.9868C360.764 83.263 372.228 91.3407 376.266 106.331C379.66 118.904 377.195 132.249 373.731 144.845Z" fill="#4C4C4A"/>
<path d="M438.389 545.117H409.791L409.668 544.894C409.303 544.231 408.95 543.528 408.62 542.806C405.674 536.499 404.429 529.286 403.33 522.923L402.503 518.126C402.403 517.545 402.478 516.947 402.72 516.409C402.961 515.872 403.358 515.418 403.858 515.107C404.359 514.796 404.941 514.641 405.53 514.663C406.119 514.684 406.689 514.881 407.165 515.228C411.511 518.391 415.859 521.55 420.209 524.707C421.856 525.905 423.736 527.292 425.538 528.791C425.712 527.947 425.893 527.1 426.075 526.265C426.2 525.689 426.495 525.163 426.921 524.755C427.347 524.347 427.885 524.075 428.466 523.975C429.047 523.874 429.645 523.949 430.184 524.191C430.722 524.432 431.176 524.829 431.487 525.329L434.833 530.705C437.274 534.631 439.428 538.5 438.989 542.672C438.991 542.723 438.987 542.774 438.978 542.823C438.89 543.509 438.727 544.182 438.492 544.832L438.389 545.117Z" fill="#F0F0F0"/>
<path d="M467.094 545.735L195.337 546C195.066 545.999 194.806 545.89 194.615 545.698C194.424 545.505 194.316 545.245 194.316 544.974C194.316 544.703 194.424 544.442 194.615 544.25C194.806 544.058 195.066 543.949 195.337 543.948L467.094 543.683C467.365 543.684 467.624 543.793 467.816 543.985C468.007 544.178 468.114 544.438 468.114 544.709C468.114 544.98 468.007 545.241 467.816 545.433C467.624 545.625 467.365 545.734 467.094 545.735Z" fill="#CACACA"/>
<path d="M220.357 163.222L190.465 137.978C189.443 137.113 188.806 135.878 188.693 134.545C188.581 133.211 189.002 131.887 189.865 130.863L195.366 124.348C196.231 123.326 197.466 122.689 198.8 122.577C200.134 122.465 201.458 122.886 202.481 123.748L232.374 148.992C233.395 149.857 234.032 151.092 234.145 152.426C234.257 153.759 233.836 155.083 232.973 156.107L227.472 162.622C226.607 163.644 225.372 164.281 224.038 164.393C222.704 164.506 221.38 164.084 220.357 163.222Z" fill="#E6E6E6"/>
<path d="M192.033 131.388C191.568 131.94 191.341 132.653 191.402 133.372C191.463 134.091 191.806 134.756 192.356 135.222L222.248 160.466C222.8 160.931 223.514 161.158 224.232 161.097C224.951 161.037 225.617 160.693 226.083 160.143L231.584 153.628C232.049 153.076 232.276 152.363 232.215 151.644C232.155 150.925 231.812 150.26 231.261 149.794L201.369 124.55C200.817 124.085 200.104 123.859 199.385 123.919C198.666 123.98 198.001 124.323 197.535 124.874L192.033 131.388Z" fill="white"/>
<path d="M209.582 141.202C209.478 141.347 209.342 141.466 209.184 141.549C209.026 141.633 208.851 141.678 208.673 141.682L203.976 141.79C203.826 141.793 203.675 141.767 203.535 141.713C203.394 141.658 203.265 141.576 203.156 141.472C203.047 141.368 202.96 141.243 202.899 141.105C202.838 140.967 202.805 140.818 202.801 140.667C202.798 140.517 202.824 140.366 202.878 140.226C202.933 140.085 203.015 139.956 203.119 139.847C203.223 139.738 203.348 139.651 203.486 139.59C203.624 139.529 203.773 139.496 203.924 139.492L206.996 139.421L203.97 131.437C203.863 131.152 203.873 130.836 203.999 130.559C204.124 130.282 204.354 130.065 204.639 129.958C204.923 129.85 205.239 129.859 205.517 129.984C205.794 130.108 206.011 130.338 206.12 130.622L209.722 140.126C209.787 140.298 209.81 140.483 209.788 140.665C209.767 140.848 209.703 141.023 209.6 141.175L209.582 141.202Z" fill="#F3733D"/>
<path d="M210.184 143.208C211.317 143.374 212.399 143.787 213.356 144.417C214.312 145.047 215.118 145.879 215.718 146.855C216.317 147.83 216.696 148.925 216.827 150.062C216.957 151.2 216.837 152.352 216.474 153.438L238.523 170.423L224.847 175.129L206.006 158.279C204.222 157.548 202.768 156.189 201.919 154.458C201.071 152.727 200.886 150.745 201.401 148.888C201.916 147.03 203.095 145.426 204.713 144.379C206.332 143.332 208.279 142.916 210.184 143.208L210.184 143.208Z" fill="#FFB799"/>
<path d="M324.975 151.606L268.523 186.315C268.523 186.315 245.762 177.893 250.211 173.995C254.659 170.096 240.498 167.461 240.498 167.461L224.855 156.936L215.777 167.486C215.777 167.486 217.431 184.622 220.245 181.655C223.06 178.687 227.266 186.793 227.266 186.793C227.266 186.793 228.509 195.843 236.521 193.566C244.532 191.288 266.029 215.161 266.029 215.161L335.504 189.25L324.975 151.606Z" fill="#E6E6E6"/>
<path d="M223.075 117.152C222.42 117.152 221.775 116.999 221.189 116.706C220.604 116.414 220.095 115.989 219.702 115.465L209.363 101.679C209.031 101.236 208.789 100.732 208.652 100.196C208.515 99.6599 208.484 99.1018 208.563 98.5538C208.641 98.0058 208.826 97.4786 209.108 97.0022C209.391 96.5259 209.764 96.1098 210.207 95.7776C211.101 95.1068 212.225 94.8188 213.332 94.977C213.88 95.0553 214.407 95.2408 214.884 95.5228C215.36 95.8049 215.776 96.178 216.108 96.6209L222.872 105.639L240.245 79.5801C240.866 78.6498 241.83 78.004 242.926 77.7847C244.023 77.5654 245.161 77.7907 246.092 78.4109C247.022 79.0311 247.668 79.9954 247.887 81.0918C248.106 82.1881 247.881 83.3267 247.261 84.257L226.583 115.274C226.208 115.835 225.705 116.298 225.115 116.625C224.525 116.951 223.866 117.131 223.192 117.15C223.153 117.151 223.114 117.152 223.075 117.152Z" fill="white"/>
</g>
<defs>
<clipPath id="clip0_267_1113">
<rect width="468.114" height="546" fill="white"/>
</clipPath>
</defs>
</svg>
