<svg width="28" height="28" viewBox="0 0 28 28" fill="none" xmlns="http://www.w3.org/2000/svg">
<g clip-path="url(#clip0_5_177)">
<path d="M27.3472 14.2619C27.3472 13.1148 27.2541 12.2777 27.0526 11.4096H13.9533V16.5872H21.6423C21.4873 17.8739 20.6502 19.8117 18.7899 21.1138L18.7639 21.2872L22.9056 24.4957L23.1926 24.5244C25.8279 22.0905 27.3472 18.5095 27.3472 14.2619Z" fill="#4285F4"/>
<path d="M13.9533 27.9038C17.7203 27.9038 20.8827 26.6636 23.1926 24.5244L18.7899 21.1138C17.6118 21.9354 16.0306 22.509 13.9533 22.509C10.2638 22.509 7.13243 20.0753 6.01617 16.7113L5.85256 16.7252L1.5459 20.0582L1.48958 20.2147C3.78387 24.7723 8.49652 27.9038 13.9533 27.9038Z" fill="#34A853"/>
<path d="M6.01617 16.7113C5.72164 15.8432 5.55118 14.913 5.55118 13.9519C5.55118 12.9907 5.72164 12.0606 6.00068 11.1925L5.99288 11.0076L1.63225 7.62112L1.48958 7.68899C0.543992 9.58027 0.00141144 11.7041 0.00141144 13.9519C0.00141144 16.1997 0.543992 18.3234 1.48958 20.2147L6.01617 16.7113Z" fill="#FBBC05"/>
<path d="M13.9533 5.3947C16.5731 5.3947 18.3403 6.52635 19.348 7.47205L23.2855 3.6275C20.8673 1.37969 17.7203 0 13.9533 0C8.49652 0 3.78387 3.1314 1.48958 7.68899L6.00068 11.1925C7.13243 7.82857 10.2638 5.3947 13.9533 5.3947Z" fill="#EB4335"/>
</g>
<defs>
<clipPath id="clip0_5_177">
<rect width="27.3616" height="28" fill="white"/>
</clipPath>
</defs>
</svg>
