<svg width="16" height="21" viewBox="0 0 16 21" fill="none" xmlns="http://www.w3.org/2000/svg">
<path d="M2.56111 21C2.03938 21 1.5929 20.8043 1.22167 20.413C0.849817 20.021 0.663889 19.55 0.663889 19V9C0.663889 8.45 0.849817 7.979 1.22167 7.587C1.5929 7.19567 2.03938 7 2.56111 7H3.50972V5C3.50972 3.61667 3.97233 2.43733 4.89754 1.462C5.82212 0.487333 6.94053 0 8.25278 0C9.56502 0 10.6838 0.487333 11.609 1.462C12.5335 2.43733 12.9958 3.61667 12.9958 5V7H13.9444C14.4662 7 14.913 7.19567 15.2848 7.587C15.6561 7.979 15.8417 8.45 15.8417 9V19C15.8417 19.55 15.6561 20.021 15.2848 20.413C14.913 20.8043 14.4662 21 13.9444 21H2.56111ZM2.56111 19H13.9444V9H2.56111V19ZM8.25278 16C8.77451 16 9.22131 15.8043 9.59317 15.413C9.96439 15.021 10.15 14.55 10.15 14C10.15 13.45 9.96439 12.979 9.59317 12.587C9.22131 12.1957 8.77451 12 8.25278 12C7.73104 12 7.28456 12.1957 6.91334 12.587C6.54148 12.979 6.35556 13.45 6.35556 14C6.35556 14.55 6.54148 15.021 6.91334 15.413C7.28456 15.8043 7.73104 16 8.25278 16ZM5.40694 7H11.0986V5C11.0986 4.16667 10.8219 3.45833 10.2686 2.875C9.71522 2.29167 9.04329 2 8.25278 2C7.46227 2 6.79034 2.29167 6.23698 2.875C5.68362 3.45833 5.40694 4.16667 5.40694 5V7Z" fill="#CCCCC6"/>
</svg>
