<svg width="20" height="16" viewBox="0 0 20 16" fill="none" xmlns="http://www.w3.org/2000/svg">
<path d="M2.66389 16C2.14215 16 1.69567 15.8043 1.32445 15.413C0.952594 15.021 0.766666 14.55 0.766666 14V2C0.766666 1.45 0.952594 0.979333 1.32445 0.588C1.69567 0.196 2.14215 0 2.66389 0H17.8417C18.3634 0 18.8102 0.196 19.1821 0.588C19.5533 0.979333 19.7389 1.45 19.7389 2V14C19.7389 14.55 19.5533 15.021 19.1821 15.413C18.8102 15.8043 18.3634 16 17.8417 16H2.66389ZM10.2528 9L2.66389 4V14H17.8417V4L10.2528 9ZM10.2528 7L17.8417 2H2.66389L10.2528 7ZM2.66389 4V2V14V4Z" fill="#CCCCC6"/>
</svg>
