<svg width="478" height="546" viewBox="0 0 478 546" fill="none" xmlns="http://www.w3.org/2000/svg">
<g clip-path="url(#clip0_127_116)">
<path d="M229.389 512.215L228.779 498.516C228.716 498.483 228.653 498.449 228.589 498.416C222.062 494.99 214.58 501.191 216.665 508.263C218.627 514.916 219.945 522.088 223.536 527.912C225.657 531.294 228.513 534.156 231.891 536.285C235.269 538.413 239.082 539.755 243.049 540.209L251.342 545.287C252.48 538.943 252.229 532.427 250.607 526.189C248.984 519.951 246.029 514.138 241.944 509.153C239.625 506.378 236.965 503.907 234.028 501.797C232.042 507.035 229.389 512.215 229.389 512.215Z" fill="#E5E5DF"/>
<path d="M155.138 373.199C139.171 356.732 116.033 347.288 91.6567 347.288L90.7164 347.29C74.6603 347.296 58.8907 343.037 45.0205 334.949L43.5771 334.108L44.7396 332.91C51.0331 326.398 56.2882 318.957 60.3207 310.849C57.4567 313.519 54.0408 315.527 50.3148 316.731C46.5888 317.935 42.6437 318.305 38.7588 317.815C34.6573 317.326 30.7198 315.914 27.2416 313.686C23.7634 311.458 20.8348 308.471 18.6755 304.95C10.1557 291.126 0 271.51 0 256.566C0.0132624 243.935 2.6578 231.445 7.76505 219.893C12.8723 208.341 20.3302 197.979 29.6634 189.469C35.5722 184.141 40.2918 177.627 43.5144 170.353C46.7371 163.078 48.3906 155.206 48.367 147.249L48.3623 146.117C48.3607 135.642 49.6407 125.206 52.1738 115.041L52.431 114.015L53.487 114.052C60.2966 114.283 67.1098 113.713 73.7859 112.351C67.5237 111.583 61.3976 109.953 55.5813 107.509L54.4453 107.049L54.8308 105.885C81.4066 89.4291 141.396 97.9508 176.216 18.2804C204.449 -46.3214 304.068 75.6275 304.068 146.117C304.068 153.31 296.951 162.814 302.279 167.568C359.879 218.959 320.136 251.959 307.605 285.165C304.632 293.043 311.079 301.692 311.079 310.216C311.079 311.662 311.042 313.155 310.969 314.653L310.858 316.956L308.937 315.678C305.138 313.189 301.616 310.3 298.432 307.061C301.736 314.663 303.292 322.909 302.988 331.192C302.684 339.475 300.526 347.585 296.674 354.924C290.638 366.317 284.798 374.474 279.317 379.166C261.76 394.192 239.125 401.943 216.043 400.834C192.961 399.725 171.174 389.84 155.138 373.199V373.199Z" fill="#E6E6E6"/>
<path d="M251.572 544.612C251.964 544.611 252.343 544.469 252.64 544.212C252.936 543.954 253.13 543.598 253.185 543.21C253.254 542.723 260.043 493.756 253.946 428.676C248.315 368.573 230.231 282.005 176.061 210.907C175.931 210.736 175.769 210.593 175.584 210.485C175.398 210.377 175.194 210.306 174.981 210.278C174.769 210.249 174.553 210.262 174.345 210.317C174.138 210.372 173.944 210.467 173.773 210.597C173.602 210.727 173.459 210.889 173.351 211.074C173.244 211.26 173.173 211.464 173.145 211.677C173.116 211.89 173.13 212.106 173.185 212.313C173.24 212.52 173.335 212.715 173.465 212.885C227.168 283.369 245.106 369.302 250.697 428.98C256.759 493.681 250.023 542.267 249.954 542.75C249.922 542.981 249.939 543.217 250.005 543.441C250.072 543.666 250.185 543.873 250.339 544.05C250.492 544.226 250.681 544.368 250.894 544.465C251.107 544.561 251.338 544.612 251.572 544.612V544.612Z" fill="#4C4C4A"/>
<path d="M207.365 311.193C207.71 311.194 208.046 311.085 208.325 310.882C208.603 310.68 208.811 310.395 208.918 310.067C209.024 309.739 209.025 309.386 208.918 309.058C208.812 308.73 208.604 308.445 208.326 308.242C208.129 308.099 188.312 293.819 158.685 282.971C131.298 272.943 89.6514 263.853 46.7769 277.499C46.5725 277.564 46.3828 277.668 46.2187 277.807C46.0546 277.945 45.9194 278.114 45.8207 278.304C45.7221 278.495 45.6619 278.703 45.6437 278.916C45.6255 279.13 45.6496 279.345 45.7146 279.549C45.7797 279.754 45.8843 279.943 46.0227 280.107C46.161 280.271 46.3303 280.406 46.5209 280.504C46.7115 280.603 46.9196 280.663 47.1333 280.68C47.347 280.698 47.5621 280.674 47.7663 280.608C89.7624 267.243 130.654 276.183 157.563 286.035C186.767 296.729 206.214 310.742 206.407 310.882C206.686 311.084 207.021 311.194 207.365 311.193Z" fill="#4C4C4A"/>
<path d="M282.034 125.209C282.059 124.866 281.975 124.523 281.793 124.23C281.611 123.937 281.341 123.709 281.022 123.579C280.703 123.449 280.351 123.424 280.016 123.506C279.682 123.589 279.382 123.775 279.16 124.039C279.003 124.225 263.334 142.963 250.381 171.733C238.408 198.329 226.342 239.216 236.865 282.965C236.966 283.385 237.23 283.749 237.599 283.975C237.968 284.2 238.412 284.27 238.832 284.169C239.253 284.068 239.616 283.804 239.842 283.435C240.068 283.066 240.138 282.622 240.037 282.202C229.731 239.349 241.592 199.205 253.356 173.073C266.124 144.714 281.5 126.325 281.654 126.142C281.876 125.879 282.009 125.553 282.034 125.209V125.209Z" fill="#4C4C4A"/>
<path d="M279.826 209.338C281.202 220.444 288.898 229.602 300.088 229.602C305.462 229.602 310.616 227.467 314.416 223.667C318.216 219.867 320.351 214.712 320.351 209.338C320.351 198.147 311.231 190.109 300.088 189.074C288.265 187.976 278.059 195.079 279.826 209.338Z" fill="#4C4C4A"/>
<path d="M309.473 535.686L317.189 535.686L320.86 505.921L309.472 505.922L309.473 535.686Z" fill="#FFB799"/>
<path d="M309.202 543.736L332.93 543.735V543.435C332.93 540.986 331.957 538.636 330.225 536.904C328.493 535.172 326.144 534.199 323.694 534.199H323.694L319.359 530.911L311.273 534.2L309.201 534.2L309.202 543.736Z" fill="#4C4C4A"/>
<path d="M279.079 535.686L286.796 535.686L290.466 505.921L279.078 505.922L279.079 535.686Z" fill="#FFB799"/>
<path d="M278.808 543.736L302.536 543.735V543.435C302.536 540.986 301.563 538.636 299.831 536.904C298.099 535.172 295.75 534.199 293.301 534.199H293.3L288.966 530.911L280.879 534.2L278.808 534.2L278.808 543.736Z" fill="#4C4C4A"/>
<path d="M336.026 349.267L341.482 367.972L335.055 447.191C335.055 447.191 338.364 452.144 336.026 452.144C333.688 452.144 330.69 453.243 332.579 456.201C334.468 459.159 328.012 469.778 328.012 469.778L318.881 526.185L307.246 526.013C307.246 526.013 301.331 522.718 304.651 519.385C307.971 516.053 310.309 516.053 307.191 512.935C304.074 509.818 304.074 510.757 304.074 508.339C304.074 505.921 300.951 476.372 308.357 465.038L306.126 418.824L300.869 464.154L290.046 524.626L278.838 524.534C278.838 524.534 273.661 519.544 273.671 515.85C273.68 512.156 276.869 511.849 274.496 509.664C272.122 507.48 272.122 473.918 279.136 455.262C279.136 455.262 283.103 444.838 279.127 441.267C275.15 437.695 279.122 433.608 279.122 433.608C279.122 433.608 285.42 431.331 279.116 424.771C272.812 418.211 279.082 371.813 279.082 371.813C279.082 371.813 272.191 353.084 279.17 345.72C286.15 338.355 336.026 349.267 336.026 349.267Z" fill="#4C4C4A"/>
<path d="M238.865 381.493L248.598 357.97L256.266 362.231L251.635 386.16C252.099 387.676 252.131 389.291 251.727 390.824C251.323 392.357 250.5 393.747 249.349 394.838C248.199 395.929 246.767 396.677 245.214 396.998C243.662 397.32 242.051 397.202 240.562 396.658C239.073 396.114 237.765 395.165 236.786 393.919C235.806 392.672 235.194 391.177 235.018 389.601C234.841 388.026 235.108 386.432 235.787 385C236.467 383.568 237.533 382.353 238.865 381.493V381.493Z" fill="#FFB799"/>
<path d="M402.19 195.479L387.381 216.186L380.877 210.298L390.809 188.041C390.701 186.459 391.036 184.878 391.777 183.477C392.517 182.075 393.634 180.908 395.002 180.106C396.37 179.304 397.934 178.9 399.519 178.939C401.103 178.978 402.646 179.457 403.973 180.325C405.3 181.192 406.359 182.412 407.03 183.849C407.702 185.285 407.959 186.88 407.774 188.454C407.589 190.029 406.968 191.52 405.982 192.761C404.996 194.002 403.682 194.944 402.19 195.479V195.479Z" fill="#FFB799"/>
<path d="M337.496 351.184C347.102 366.085 298.817 384.994 280.29 377.403C277.046 376.073 265.887 371.683 273.514 365.595C281.142 359.508 272.63 358.652 272.429 354.689C272.294 352.04 274.345 346.228 272.205 346.477C270.065 346.726 267.561 343.063 272.221 341.486C276.882 339.909 272.271 338.472 272.312 336.975C272.758 320.643 285.288 294.665 285.288 294.665L262.71 352.383C262.71 352.383 262.877 362.369 259.997 359.317C257.118 356.266 257.328 366.142 257.328 366.142C257.328 366.142 253.046 369.13 255.508 370.793C257.97 372.456 252.858 377.569 252.858 377.569L240.929 376.717C240.929 376.717 241.116 367.855 243.153 365.895C245.189 363.935 244.189 360.851 244.189 360.851C244.189 360.851 249.492 356.157 245.937 352.345C241.364 347.443 258.035 264.642 263.788 265.462C264.602 261.503 266.494 257.846 269.255 254.896C272.017 251.945 275.541 249.816 279.437 248.743L292.321 245.195L294.609 236.118H312.75L315.91 242.082L329.703 248.307C332.301 244.641 334.242 240.778 344.88 239.526C344.88 239.526 373.546 213.443 372.146 211.406C370.747 209.37 375.19 204.601 375.19 204.601C375.19 204.601 378.985 203.359 376.844 202.696C374.702 202.033 378.75 200.5 378.75 200.5C378.75 200.5 382.499 199.514 380.731 198.217C378.963 196.92 386.631 196.068 386.631 196.068L396.581 204.187L394.57 207.597C394.57 207.597 395.796 212.24 394.196 210.545C392.596 208.85 392.294 213.769 392.294 213.769C392.294 213.769 391.477 219.156 386.631 220.779C381.785 222.402 378.111 237.822 378.111 237.822C366.682 252.682 353.195 264.275 337.212 271.906C343.441 279.057 337.496 351.184 337.496 351.184Z" fill="#F3733D"/>
<path d="M302.328 230.805C312.252 230.805 320.296 222.76 320.296 212.836C320.296 202.912 312.252 194.867 302.328 194.867C292.405 194.867 284.36 202.912 284.36 212.836C284.36 222.76 292.405 230.805 302.328 230.805Z" fill="#FFB799"/>
<path d="M283.723 214.794C284.291 218.698 287.619 224.146 286.84 224.146C286.061 224.146 280.52 208.05 286.061 207C290.08 206.239 290.978 206.906 294.734 205.278L294.204 205.776C296.691 207.585 300.151 206.47 302.987 205.293C305.832 204.124 309.284 203.01 311.778 204.81C313.345 205.94 314.007 207.904 314.981 209.572C315.955 211.248 317.756 212.83 319.61 212.315C321.099 211.902 321.956 210.234 321.948 208.691C321.941 207.148 319.931 205.68 320.608 204.296C322.613 200.193 320.81 197.396 316.439 195.465C314.849 195.224 313.259 194.977 311.669 194.725C312.502 193.571 313.512 192.556 314.662 191.716C314.176 190.471 313.336 189.395 312.246 188.622C310.975 187.866 309.401 187.921 307.928 187.999C304.64 188.17 301.353 188.342 298.07 188.513C295.638 188.638 293.121 188.786 290.947 189.9C288.235 191.296 286.458 194.016 285.164 196.782C282.265 203.002 282.725 208.005 283.723 214.794Z" fill="#4C4C4A"/>
<path d="M208.977 545.761L385.689 546C385.935 546 386.171 545.902 386.345 545.728C386.519 545.554 386.617 545.318 386.617 545.072C386.617 544.826 386.519 544.59 386.345 544.416C386.171 544.242 385.935 544.144 385.689 544.144L208.977 543.905C208.731 543.905 208.495 544.002 208.321 544.176C208.147 544.35 208.049 544.586 208.049 544.833C208.049 545.079 208.147 545.315 208.321 545.489C208.495 545.663 208.731 545.761 208.977 545.761V545.761Z" fill="#E6E6E6"/>
<path d="M145.065 464.868C145.391 462.629 143.046 460.434 139.827 459.966C136.609 459.498 133.736 460.933 133.41 463.172C133.084 465.412 135.429 467.606 138.648 468.075C141.866 468.543 144.739 467.107 145.065 464.868Z" fill="#E6E6E6"/>
<path d="M183.386 461.129C183.711 458.89 181.366 456.695 178.148 456.227C174.929 455.758 172.056 457.194 171.73 459.433C171.404 461.672 173.75 463.867 176.968 464.335C180.187 464.803 183.06 463.368 183.386 461.129Z" fill="#4C4C4A"/>
<path d="M134.572 433.843C134.898 431.604 132.553 429.409 129.334 428.941C126.116 428.472 123.242 429.908 122.917 432.147C122.591 434.386 124.936 436.581 128.154 437.049C131.373 437.517 134.246 436.082 134.572 433.843Z" fill="#F3733D"/>
<path d="M117.921 421.134C117.936 419.079 116.79 417.404 115.36 417.393C113.93 417.382 112.758 419.04 112.742 421.095C112.727 423.151 113.874 424.826 115.303 424.837C116.733 424.848 117.905 423.19 117.921 421.134Z" fill="#E6E6E6"/>
<path d="M112.274 397.463C112.289 395.408 111.143 393.733 109.713 393.722C108.283 393.711 107.111 395.369 107.096 397.424C107.08 399.48 108.227 401.155 109.657 401.166C111.087 401.177 112.258 399.519 112.274 397.463Z" fill="#4C4C4A"/>
<path d="M156.185 439.123C156.201 437.067 155.054 435.392 153.624 435.381C152.194 435.37 151.022 437.028 151.007 439.083C150.991 441.139 152.138 442.814 153.568 442.825C154.998 442.836 156.169 441.178 156.185 439.123Z" fill="#E6E6E6"/>
<path d="M137.667 448.369C137.682 446.313 136.536 444.638 135.106 444.627C133.676 444.617 132.504 446.274 132.489 448.33C132.473 450.386 133.62 452.061 135.05 452.072C136.48 452.082 137.651 450.425 137.667 448.369Z" fill="#F3733D"/>
<path d="M163.445 465.459C163.46 463.403 162.314 461.728 160.884 461.717C159.454 461.707 158.282 463.364 158.267 465.42C158.251 467.475 159.398 469.151 160.828 469.161C162.258 469.172 163.429 467.515 163.445 465.459Z" fill="#4C4C4A"/>
<path d="M439.649 344.845C439.975 342.605 437.63 340.411 434.412 339.942C431.193 339.474 428.32 340.909 427.994 343.149C427.668 345.388 430.013 347.583 433.232 348.051C436.45 348.519 439.324 347.084 439.649 344.845Z" fill="#E6E6E6"/>
<path d="M477.97 341.105C478.296 338.866 475.95 336.671 472.732 336.203C469.513 335.734 466.64 337.17 466.314 339.409C465.989 341.648 468.334 343.843 471.552 344.311C474.771 344.78 477.644 343.344 477.97 341.105Z" fill="#4C4C4A"/>
<path d="M429.155 313.819C429.481 311.58 427.136 309.385 423.917 308.917C420.699 308.448 417.826 309.884 417.5 312.123C417.174 314.362 419.519 316.557 422.738 317.025C425.956 317.494 428.83 316.058 429.155 313.819Z" fill="#F3733D"/>
<path d="M412.505 301.111C412.52 299.055 411.374 297.38 409.944 297.369C408.514 297.358 407.342 299.016 407.327 301.071C407.311 303.127 408.458 304.802 409.888 304.813C411.318 304.824 412.489 303.166 412.505 301.111Z" fill="#E6E6E6"/>
<path d="M406.858 277.44C406.874 275.384 405.727 273.709 404.297 273.698C402.867 273.687 401.695 275.345 401.68 277.401C401.664 279.456 402.811 281.131 404.241 281.142C405.671 281.153 406.842 279.495 406.858 277.44Z" fill="#4C4C4A"/>
<path d="M450.769 319.099C450.785 317.043 449.638 315.368 448.208 315.357C446.778 315.346 445.607 317.004 445.591 319.06C445.575 321.115 446.722 322.79 448.152 322.801C449.582 322.812 450.754 321.154 450.769 319.099Z" fill="#E6E6E6"/>
<path d="M432.251 328.345C432.266 326.29 431.12 324.614 429.69 324.604C428.26 324.593 427.088 326.25 427.073 328.306C427.057 330.362 428.204 332.037 429.634 332.048C431.064 332.059 432.235 330.401 432.251 328.345Z" fill="#F3733D"/>
<path d="M458.029 345.435C458.044 343.38 456.898 341.704 455.468 341.694C454.038 341.683 452.866 343.34 452.851 345.396C452.835 347.452 453.982 349.127 455.412 349.138C456.842 349.148 458.013 347.491 458.029 345.435Z" fill="#4C4C4A"/>
<path d="M297.033 122.723C297.359 120.483 295.014 118.289 291.795 117.82C288.577 117.352 285.703 118.787 285.378 121.027C285.052 123.266 287.397 125.461 290.616 125.929C293.834 126.397 296.707 124.962 297.033 122.723Z" fill="white"/>
<path d="M335.354 118.983C335.679 116.744 333.334 114.549 330.116 114.081C326.897 113.613 324.024 115.048 323.698 117.287C323.372 119.526 325.718 121.721 328.936 122.189C332.155 122.658 335.028 121.222 335.354 118.983Z" fill="#4C4C4A"/>
<path d="M286.54 91.6971C286.866 89.4579 284.521 87.2631 281.302 86.7948C278.084 86.3265 275.21 87.762 274.885 90.0012C274.559 92.2403 276.904 94.4352 280.122 94.9035C283.341 95.3718 286.214 93.9362 286.54 91.6971Z" fill="#F3733D"/>
<path d="M269.889 78.9886C269.904 76.933 268.758 75.2578 267.328 75.247C265.898 75.2362 264.726 76.8938 264.711 78.9495C264.695 81.0051 265.842 82.6803 267.271 82.6911C268.701 82.7019 269.873 81.0442 269.889 78.9886Z" fill="#E6E6E6"/>
<path d="M264.242 55.3177C264.257 53.2621 263.111 51.5869 261.681 51.5761C260.251 51.5653 259.079 53.223 259.064 55.2786C259.048 57.3342 260.195 59.0094 261.625 59.0202C263.055 59.031 264.226 57.3734 264.242 55.3177Z" fill="#4C4C4A"/>
<path d="M308.153 96.9768C308.169 94.9212 307.022 93.246 305.592 93.2352C304.162 93.2244 302.99 94.8821 302.975 96.9377C302.959 98.9933 304.106 100.668 305.536 100.679C306.966 100.69 308.138 99.0325 308.153 96.9768Z" fill="#E6E6E6"/>
<path d="M289.635 106.223C289.65 104.168 288.504 102.493 287.074 102.482C285.644 102.471 284.472 104.129 284.457 106.184C284.441 108.24 285.588 109.915 287.018 109.926C288.448 109.937 289.619 108.279 289.635 106.223Z" fill="#F3733D"/>
<path d="M315.413 123.313C315.428 121.258 314.282 119.582 312.852 119.572C311.422 119.561 310.25 121.218 310.235 123.274C310.219 125.33 311.366 127.005 312.796 127.016C314.226 127.027 315.397 125.369 315.413 123.313Z" fill="#4C4C4A"/>
</g>
<defs>
<clipPath id="clip0_127_116">
<rect width="478" height="546" fill="white"/>
</clipPath>
</defs>
</svg>
