<svg width="259" height="27" viewBox="0 0 259 27" fill="none" xmlns="http://www.w3.org/2000/svg">
<g clip-path="url(#clip0_79_375)">
<path d="M0 26.4V2.5H17.2V6.8H4.5V13.3H16.5V17.5H4.5V26.4H0Z" fill="#2A3568"/>
<path d="M45 26.4H39.6L32.6 18.4H28.3V26.4H23.8V2.39999C27.6 2.39999 31.4001 2.39999 35.2001 2.39999C40.8001 2.39999 43.8 6.19999 43.8 10.3C43.8 13.6 42.3001 16.9 37.7001 17.8L44.9001 26V26.4H45ZM28.3 6.69999V14.4H35.2001C38.1 14.4 39.3 12.5 39.3 10.6C39.3 8.69999 38.0001 6.79999 35.2001 6.79999H28.3V6.69999Z" fill="#2A3568"/>
<path d="M67.1999 21.9H54.7L52.5999 26.4H47.7L58.5 2.5H63.4L74.0999 26.4H69.1999L67.1999 21.9ZM61 7.5L56.5999 17.7H65.5L61 7.5Z" fill="#2A3568"/>
<path d="M100.1 9L92.3 19.4H91.4L83.8 9V26.4H79.3V2.5H84.5L92 12.8L99.5 2.5H104.7V26.4H100.2V9H100.1Z" fill="#2A3568"/>
<path d="M130.1 26.4H112.2C112.2 18.4 112.2 10.4 112.2 2.5H130.1V6.9H116.7V12.4H129.7V16.6H116.7V22H130.1V26.4Z" fill="#2A3568"/>
<path d="M153.3 26.4V16.7H141.5V26.4H137V2.5H141.5V12.6H153.3V2.5H157.8V26.4H153.3Z" fill="#2A3568"/>
<path d="M197.1 6.6H189.5V2.5C196.4 2.5 202.2 2.5 209.2 2.5V6.6H201.6V26.4H197.1V6.6Z" fill="#2A3568"/>
<path d="M234.6 2.6L224 14L235.5 26.1V26.4H229.9L219.9 15.8V26.4H215.4V2.5H219.9V12.6L229 2.5H234.6V2.6Z" fill="#2A3568"/>
<path d="M259 26.4H241.1C241.1 18.4 241.1 10.4 241.1 2.5H259V6.9H245.6V12.4H258.6V16.6H245.6V22H259V26.4Z" fill="#2A3568"/>
<path d="M184.7 20.5L183 23.5L181.3 20.5H184.7Z" fill="#F3733D"/>
<path d="M191.4 26.4H188.1L189.8 23.5L191.4 26.4Z" fill="#2A3568"/>
<path d="M188.1 20.5L186.4 23.5L184.7 26.4H181.3L183 23.5L184.7 20.5L186.4 17.6L188.1 20.5Z" fill="#F3733D"/>
<path d="M184.7 14.7L183 17.6L181.3 20.5L179.6 23.5L177.9 26.4H174.5L176.2 23.5L177.9 20.5L179.6 17.6L181.3 14.7L183 11.7L184.7 14.7Z" fill="#F3733D"/>
<path d="M183 11.7H179.6L177.9 8.8L176.2 5.9L174.5 8.8L172.8 11.7L174.5 14.7L176.2 17.6H172.8L171.1 14.7L169.4 17.6L167.7 20.5L166 23.5L164.3 26.4H160.9L162.6 23.5L164.3 20.5L166 17.6L167.7 14.7L169.4 11.7L171.1 8.8L172.8 5.9L174.5 2.9L176.2 0L177.9 2.9L179.6 5.9L181.3 8.8L183 11.7Z" fill="#2A3568"/>
</g>
<defs>
<clipPath id="clip0_79_375">
<rect width="259" height="26.4" fill="white"/>
</clipPath>
</defs>
</svg>
