<svg width="525" height="521" viewBox="0 0 525 521" fill="none" xmlns="http://www.w3.org/2000/svg">
<g clip-path="url(#clip0_5_101)">
<path d="M524.67 518.998C524.67 519.658 524.14 520.188 523.48 520.188H1.19C0.53003 520.188 0 519.658 0 518.998C0 518.338 0.53003 517.808 1.19 517.808H523.48C524.14 517.808 524.67 518.338 524.67 518.998Z" fill="#E6E6E6"/>
<path d="M362.542 461.059L368.542 486.059L350.542 491.059L346.542 464.059L362.542 461.059Z" fill="#FFB799"/>
<path d="M391.542 380.059L372.542 396.059L360.542 415.059L377.542 426.059L406.542 393.059L391.542 380.059Z" fill="#FFB799"/>
<path d="M385.542 215.059L401.542 269.059C401.542 269.059 472.542 331.059 465.542 344.059C458.542 357.059 411.542 393.059 411.542 393.059C411.542 393.059 415.03 404.571 404.786 399.815C394.542 395.059 383.542 382.059 383.542 382.059C383.542 382.059 383.542 372.059 388.542 374.059C393.542 376.059 416.542 349.059 416.542 349.059L366.542 303.059V456.874C366.542 456.874 378.542 467.366 366.542 468.212C354.542 469.059 343.542 471.059 343.542 471.059C343.542 471.059 329.542 466.059 334.542 461.059L319.542 379.059L308.542 279.059L316.542 227.059L385.542 215.059Z" fill="#4C4C4A"/>
<path d="M353.542 483.059C353.542 483.059 354.542 479.059 358.542 479.059H370.758C370.758 479.059 374.542 496.059 373.542 496.059C372.542 496.059 389.542 518.059 371.542 519.059C353.542 520.059 348.542 518.059 348.542 518.059L346.542 510.165C346.542 510.165 343.542 505.059 344.542 501.059C345.542 497.059 353.542 483.059 353.542 483.059Z" fill="#4C4C4A"/>
<path d="M378.542 418.059C378.542 418.059 390.027 417.878 387.285 420.968C384.542 424.059 379.542 429.059 379.542 429.059C379.542 429.059 367.648 453.059 362.095 448.559C356.542 444.059 347.542 394.059 350.542 388.059C353.542 382.059 357.542 382.059 357.542 382.059L375.991 393.154C375.991 393.154 364.542 421.059 378.542 418.059Z" fill="#4C4C4A"/>
<path d="M350.542 130.059L354.542 105.059L327.542 94.0588L323.542 132.059L350.542 130.059Z" fill="#FFB799"/>
<path opacity="0.1" d="M350.542 130.059L354.542 105.059L327.542 94.0588L323.542 132.059L350.542 130.059Z" fill="#4C4C4A"/>
<path d="M322.042 126.559L354.042 118.559L388.042 129.559C388.042 129.559 403.042 171.559 398.042 186.559C393.042 201.559 393.042 230.858 393.042 230.858C393.042 230.858 392.542 218.059 363.542 227.059C334.542 236.059 313.542 235.059 313.542 235.059L312.542 199.059L299.98 167.082C294.61 153.414 300.398 137.896 313.406 131.083L322.042 126.559Z" fill="#E6E6E6"/>
<path d="M468.936 244.361C473.452 249.771 474.321 256.486 470.877 259.359C467.434 262.232 460.984 260.175 456.468 254.763C454.634 252.626 453.339 250.08 452.69 247.34L433.848 224.178L443.026 216.75L462.307 239.315C464.888 240.444 467.161 242.174 468.936 244.361V244.361Z" fill="#FFB799"/>
<path d="M386.589 129.878L380.031 155.854L412.128 207.233L444.894 240.164L455.514 231.353L422.469 190.237L397.421 137.259L386.589 129.878Z" fill="#E6E6E6"/>
<path d="M462.998 104.805C485.855 103.116 502.653 78.3057 500.516 49.3896C498.379 20.4735 478.117 -1.59833 455.259 0.09084C432.402 1.78001 415.604 26.5905 417.741 55.5066C419.878 84.4227 440.14 106.494 462.998 104.805Z" fill="#F3733D"/>
<path d="M462.129 104.805H460.129V304.243H462.129V104.805Z" fill="#4C4C4A"/>
<path d="M462.626 100.594L462.866 107.661L466.06 114.203L452.736 113.523L458.336 107.89L457.703 101.469L462.626 100.594Z" fill="#F3733D"/>
<path d="M343.719 113.095C358.925 113.095 371.252 100.768 371.252 85.5618C371.252 70.3555 358.925 58.0283 343.719 58.0283C328.512 58.0283 316.185 70.3555 316.185 85.5618C316.185 100.768 328.512 113.095 343.719 113.095Z" fill="#FFB799"/>
<path d="M341.521 48.5449C342.318 49.01 343.385 48.3063 343.641 47.4199C343.896 46.5335 343.599 45.5923 343.304 44.7183L341.818 40.3182C340.764 37.1975 339.646 33.9678 337.364 31.5926C333.92 28.0077 328.447 27.0957 323.52 27.7564C317.192 28.6049 310.949 32.0311 308.007 37.6969C305.065 43.3627 306.317 51.2685 311.634 54.8034C304.057 63.4876 301.416 73.1658 301.833 84.6831C302.25 96.2004 314.801 106.8 322.986 114.914C324.814 113.806 326.475 108.613 325.47 106.727C324.465 104.84 325.905 102.655 324.66 100.917C323.415 99.1796 322.374 101.946 323.632 100.219C324.427 99.1284 321.327 96.6204 322.508 95.9679C328.217 92.8118 330.116 85.6951 333.702 80.2452C338.027 73.6717 345.43 69.2201 353.264 68.4816C357.58 68.0747 362.138 68.8116 365.676 71.317C369.213 73.8224 371.503 78.2995 370.683 82.5559C372.807 80.3989 373.864 77.2379 373.466 74.2368C373.067 71.2357 371.22 68.4606 368.606 66.9333C370.196 61.6771 368.834 55.631 365.145 51.5636C361.456 47.4963 346.491 48.189 341.105 49.2595" fill="#4C4C4A"/>
<path d="M340.685 68.6411C333.552 69.4112 328.401 75.5903 324.052 81.2967C321.545 84.5857 318.919 88.2179 318.982 92.3529C319.046 96.5334 321.841 100.119 323.177 104.081C325.36 110.557 323.232 118.262 318.035 122.699C323.17 123.673 328.722 119.822 329.609 114.671C330.641 108.673 326.095 102.885 326.633 96.8237C327.108 91.4834 331.316 87.3734 334.894 83.3805C338.472 79.3876 341.832 74.0891 340.186 68.9866" fill="#4C4C4A"/>
<path d="M314.426 234.558H108.758C85.4346 234.558 66.5276 253.465 66.5276 276.788V476.221C66.5276 499.544 85.4345 518.451 108.757 518.451H314.426C337.749 518.451 356.656 499.544 356.656 476.221V276.788C356.656 253.465 337.749 234.558 314.426 234.558V234.558Z" fill="white"/>
<path d="M314.427 519.45H108.758C84.9207 519.45 65.5276 500.058 65.5276 476.221V276.788C65.5276 252.951 84.9207 233.558 108.758 233.558H314.427C338.263 233.558 357.656 252.951 357.656 276.788V476.221C357.656 500.058 338.263 519.45 314.427 519.45ZM108.758 235.558C86.0232 235.558 67.5276 254.054 67.5276 276.788V476.221C67.5276 498.955 86.0232 517.45 108.758 517.45H314.427C337.161 517.45 355.656 498.955 355.656 476.221V276.788C355.656 254.054 337.161 235.558 314.427 235.558H108.758Z" fill="#2A3568"/>
<path d="M292.725 254.177C295.359 254.177 297.494 252.042 297.494 249.408C297.494 246.774 295.359 244.639 292.725 244.639C290.091 244.639 287.956 246.774 287.956 249.408C287.956 252.042 290.091 254.177 292.725 254.177Z" fill="#2A3568"/>
<path d="M305.84 254.177C308.474 254.177 310.609 252.042 310.609 249.408C310.609 246.774 308.474 244.639 305.84 244.639C303.206 244.639 301.071 246.774 301.071 249.408C301.071 252.042 303.206 254.177 305.84 254.177Z" fill="#2A3568"/>
<path d="M318.955 254.177C321.589 254.177 323.724 252.042 323.724 249.408C323.724 246.774 321.589 244.639 318.955 244.639C316.321 244.639 314.186 246.774 314.186 249.408C314.186 252.042 316.321 254.177 318.955 254.177Z" fill="#2A3568"/>
<path d="M102.015 448.631C100.534 448.631 99.3285 449.836 99.3285 451.318C99.3285 452.04 99.6075 452.709 100.114 453.202C100.625 453.725 101.294 454.005 102.015 454.005H317.114C318.595 454.005 319.801 452.8 319.801 451.318C319.801 450.595 319.522 449.927 319.015 449.434C318.504 448.911 317.835 448.631 317.114 448.631H102.015Z" fill="#E6E6E6"/>
<path d="M217.03 447.735V454.9H102.015C101.03 454.9 100.135 454.506 99.4898 453.844C98.8269 453.199 98.4329 452.303 98.4329 451.318C98.4329 449.347 100.045 447.735 102.015 447.735H217.03V447.735Z" fill="#F3733D"/>
<path d="M312.636 434.301H276.81C272.859 434.301 269.645 431.087 269.645 427.136C269.645 423.184 272.859 419.97 276.81 419.97H312.636C316.586 419.97 319.801 423.184 319.801 427.136C319.801 431.087 316.586 434.301 312.636 434.301Z" fill="#E6E6E6"/>
<path d="M178.044 439.422L153 355.274L151.083 355.844L176.039 439.696" fill="#4C4C4A"/>
<path d="M178.911 247.916C201.769 246.227 218.566 221.416 216.429 192.5C214.292 163.584 194.03 141.512 171.173 143.202C148.315 144.891 131.518 169.701 133.655 198.617C135.792 227.533 156.054 249.605 178.911 247.916Z" fill="#F3733D"/>
<path d="M178.042 247.916H176.042V447.354H178.042V247.916Z" fill="#4C4C4A"/>
<path d="M154.126 352.836L156.371 359.541L161.298 364.901L148.333 368.049L152.095 361.052L149.657 355.078L154.126 352.836Z" fill="#F3733D"/>
<path d="M178.54 243.705L178.78 250.772L181.973 257.314L168.649 256.634L174.25 251.001L173.617 244.579L178.54 243.705Z" fill="#F3733D"/>
<path d="M154.8 354.593C176.207 346.404 185.162 317.812 174.803 290.731C164.443 263.65 138.691 248.335 117.284 256.524C95.8773 264.713 86.9216 293.305 97.2812 320.386C107.641 347.467 133.393 362.782 154.8 354.593Z" fill="#F3733D"/>
<path d="M336.509 224.322C343.255 226.358 347.672 231.49 346.375 235.782C345.079 240.075 338.56 241.903 331.812 239.865C329.105 239.088 326.624 237.674 324.576 235.741L296.103 226.751L299.687 215.5L328.198 223.751C330.974 223.275 333.824 223.47 336.509 224.322Z" fill="#FFB799"/>
<path d="M287.042 150.559L317.042 128.559L316.042 170.559L288.042 206.559L318.042 218.559L317.042 235.693C317.042 235.693 279.042 226.559 273.042 225.559C267.042 224.559 262.042 210.559 262.042 210.559L287.042 150.559Z" fill="#E6E6E6"/>
</g>
<defs>
<clipPath id="clip0_5_101">
<rect width="524.67" height="520.188" fill="white"/>
</clipPath>
</defs>
</svg>
